<svg width="7" height="7" viewBox="0 0 7 7" fill="none" xmlns="http://www.w3.org/2000/svg">
<path opacity="0.5" fill-rule="evenodd" clip-rule="evenodd" d="M1.28033 0.231388C0.987437 -0.0615045 0.512563 -0.0615045 0.21967 0.231388C-0.0732232 0.524282 -0.0732232 0.999155 0.21967 1.29205L2.18934 3.26172L0.21967 5.23139C-0.0732232 5.52428 -0.0732232 5.99916 0.21967 6.29205C0.512563 6.58494 0.987437 6.58494 1.28033 6.29205L3.25 4.32238L5.21967 6.29205C5.51256 6.58494 5.98744 6.58494 6.28033 6.29205C6.57322 5.99916 6.57322 5.52428 6.28033 5.23139L4.31066 3.26172L6.28033 1.29205C6.57322 0.999155 6.57322 0.524282 6.28033 0.231388C5.98744 -0.0615045 5.51256 -0.0615045 5.21967 0.231388L3.25 2.20106L1.28033 0.231388Z" fill="#6E328C"/>
</svg>
